<?xml version="1.0" encoding="UTF-8"?>
<svg version="1.1" xmlns="http://www.w3.org/2000/svg" width="1024" height="1024">
<path d="M0 0 C0.33 0.66 0.66 1.32 1 2 C2.60101563 1.94779297 2.60101563 1.94779297 4.234375 1.89453125 C38.40261009 1.13773822 73.40463 11.58423935 101 32 C101.99 32.70769531 102.98 33.41539062 104 34.14453125 C120.37516876 46.07083401 135.43409831 60.30229492 142 80 C143.59234587 93.26196634 136.61890051 104.12584862 130.4375 115.375 C129.52049316 117.0612146 129.52049316 117.0612146 128.58496094 118.78149414 C126.72923791 122.19094073 124.8656292 125.59596584 123 129 C120.91567195 132.81195666 118.83259083 136.62459398 116.75 140.4375 C116.02526489 141.76418701 116.02526489 141.76418701 115.28588867 143.11767578 C111.90781712 149.31109289 108.55818435 155.51895285 105.25 161.75 C104.81913086 162.55493896 104.38826172 163.35987793 103.94433594 164.18920898 C101.78271329 167.89156024 101.78271329 167.89156024 101 172 C100.56550537 172.42434326 100.13101074 172.84868652 99.68334961 173.28588867 C97.55242461 175.45575444 96.44148889 177.71303471 95.06640625 180.42578125 C94.50614746 181.52116211 93.94588867 182.61654297 93.36865234 183.74511719 C92.77262207 184.92235352 92.1765918 186.09958984 91.5625 187.3125 C90.29930813 189.78447491 89.03107265 192.25384076 87.76171875 194.72265625 C87.44330017 195.34276581 87.12488159 195.96287537 86.79681396 196.60177612 C83.91338225 202.20185914 80.91509849 207.7338353 77.875 213.25 C73.30342419 221.55665696 68.88283971 229.93169045 64.52368164 238.3515625 C60.38187174 246.32787572 56.09592787 254.22041863 51.74414062 262.08398438 C51.26783203 262.94830078 50.79152344 263.81261719 50.30078125 264.703125 C49.87966064 265.46270508 49.45854004 266.22228516 49.0246582 267.00488281 C47.87742608 269.11420259 47.87742608 269.11420259 47 272 C45.75156278 274.26557253 44.47990778 276.50975241 43.1875 278.75 C39.36131596 285.46197533 35.73781994 292.26351281 32.1875 299.125 C28.32095 306.595111 24.37644887 314.01051889 20.3125 321.375 C14.80520512 331.37302839 9.59031477 341.511655 4.38861084 351.67053223 C-0.43312257 361.08235608 -5.35580477 370.42009146 -10.47265625 379.67578125 C-14.79905887 387.54089905 -18.9040485 395.51341027 -23 403.5 C-27.54017887 412.35277719 -32.12359064 421.16677637 -36.9375 429.875 C-42.00945574 439.05704942 -46.83575317 448.35602776 -51.625 457.6875 C-52.17901993 458.76676254 -52.17901993 458.76676254 -52.74423218 459.86782837 C-54.19086023 462.68635283 -55.63725737 465.5049956 -57.08326721 468.32383728 C-60.90526674 475.77094218 -64.77363627 483.19229294 -68.71191406 490.57861328 C-69.66031953 492.36145738 -70.60433723 494.14663731 -71.54589844 495.93310547 C-73.23037111 499.12668782 -74.92665606 502.31377604 -76.625 505.5 C-77.1396582 506.47976807 -77.65431641 507.45953613 -78.18457031 508.46899414 C-89.78301315 530.09212024 -89.78301315 530.09212024 -100 534 C-107.7908449 535.43541615 -114.39568666 534.39082259 -121.1171875 530.20703125 C-137.73013547 517.48844642 -147.84615828 500.95873819 -156 482 C-156.60328125 480.61167969 -156.60328125 480.61167969 -157.21875 479.1953125 C-158 477 -158 477 -158 474 C-158.66 473.67 -159.32 473.34 -160 473 C-160.5625 471.13671875 -160.5625 471.13671875 -161 468.6875 C-161.16371094 467.77226563 -161.32742188 466.85703125 -161.49609375 465.9140625 C-161.66238281 464.95242188 -161.82867187 463.99078125 -162 463 C-162.17660156 462.12085938 -162.35320312 461.24171875 -162.53515625 460.3359375 C-163.66882063 454.3737026 -164.24187639 448.46811794 -164.55050659 442.41764832 C-164.59291595 441.5905483 -164.63532531 440.76344828 -164.67901981 439.91128463 C-165.13704233 430.19365416 -165.14037394 420.48145308 -165.12939453 410.75512695 C-165.13075405 408.69855722 -165.13253705 406.64198774 -165.13470459 404.5854187 C-165.13922639 399.04316101 -165.13750769 393.50092216 -165.1343255 387.95866418 C-165.13175919 382.07231112 -165.13415256 376.18595946 -165.13571167 370.29960632 C-165.13752749 360.37152831 -165.13514922 350.44345774 -165.13037109 340.51538086 C-165.12558622 330.46068838 -165.12551005 320.40601079 -165.13037109 310.35131836 C-165.17480612 215.06540552 -165.17480612 215.06540552 -164.72799301 179.28487206 C-164.69659221 176.68995124 -164.66927886 174.09497661 -164.64673233 171.49996376 C-164.42458115 147.62467814 -162.67455553 122.89229683 -152.69921875 100.8125 C-151.82003896 98.85729128 -151.82003896 98.85729128 -152 96 C-151.34 96 -150.68 96 -150 96 C-149.7421875 95.14535156 -149.484375 94.29070312 -149.21875 93.41015625 C-143.71670747 78.01501803 -132.06907032 64.68401867 -121 53 C-120.10796875 52.04351562 -119.2159375 51.08703125 -118.296875 50.1015625 C-92.29998555 22.78915716 -51.77027157 3.23386675 -13.79174805 1.92382812 C-11.6725931 1.90285347 -9.55657161 1.91168188 -7.4375 1.9375 C-6.71498047 1.94201172 -5.99246094 1.94652344 -5.24804688 1.95117188 C-3.49866056 1.96275721 -1.74931801 1.98068238 0 2 C0 1.34 0 0.68 0 0 Z M-29 80 C-30.13824219 80.37382812 -31.27648437 80.74765625 -32.44921875 81.1328125 C-56.23713939 89.63453088 -74.31707868 105.33156606 -85.5 128.046875 C-92.42956465 144.298354 -92.43887521 162.09317477 -92.35644531 179.45654297 C-92.35723832 181.63839805 -92.3593421 183.82025298 -92.36264038 186.00210571 C-92.3677237 191.86483484 -92.35434591 197.727385 -92.33711338 203.59008551 C-92.3219637 209.74560929 -92.32324891 215.90113184 -92.32244873 222.05667114 C-92.31877121 232.3735862 -92.30387278 242.69043411 -92.28125 253.00732422 C-92.25226869 266.25094369 -92.24201404 279.49450953 -92.2375679 292.73815727 C-92.23359118 304.14423989 -92.22109876 315.55031087 -92.20722103 326.95638514 C-92.20312507 330.61712143 -92.20019819 334.27785731 -92.19742584 337.93859482 C-92.19253489 343.67938455 -92.18233496 349.42014173 -92.16798782 355.16091537 C-92.16346554 357.26805324 -92.16062633 359.37519549 -92.15958023 361.48233795 C-92.15783417 364.35445876 -92.14995073 367.2264982 -92.14044189 370.09860229 C-92.14130838 370.93486833 -92.14217486 371.77113437 -92.1430676 372.63274181 C-92.17527264 378.3977583 -92.17527264 378.3977583 -91 384 C-88.03292954 385.85916824 -88.03292954 385.85916824 -85 387 C-79.32628593 382.3231628 -76.6727399 376.04424771 -73.4375 369.5625 C-72.20905249 367.13826285 -70.9735688 364.71763234 -69.73828125 362.296875 C-69.42852356 361.6876973 -69.11876587 361.07851959 -68.79962158 360.45088196 C-65.68627404 354.34388815 -62.42421149 348.32093809 -59.125 342.3125 C-58.60736084 341.36898682 -58.08972168 340.42547363 -57.55639648 339.45336914 C-56.37334122 337.30090245 -55.18813733 335.14966435 -54 333 C-54.66 332.67 -55.32 332.34 -56 332 C-55.40251953 331.77989258 -54.80503906 331.55978516 -54.18945312 331.33300781 C-51.27282655 329.55727397 -50.48794368 327.71726787 -48.96875 324.671875 C-48.41171387 323.57327148 -47.85467773 322.47466797 -47.28076172 321.34277344 C-46.99070251 320.75749878 -46.70064331 320.17222412 -46.40179443 319.56921387 C-44.86647323 316.47196961 -43.29310511 313.39403409 -41.7265625 310.3125 C-41.41123566 309.68929871 -41.09590881 309.06609741 -40.77102661 308.42401123 C-37.92014072 302.80134641 -34.92283183 297.26766159 -31.875 291.75 C-26.21669379 281.46601437 -20.78455467 271.07180669 -15.37890625 260.65332031 C-11.61891133 253.41825926 -7.80755723 246.21010528 -4 239 C-3.53273499 238.11477661 -3.53273499 238.11477661 -3.05603027 237.21166992 C5.46166007 221.0751461 14.00200304 204.95271924 22.67529297 188.89916992 C27.45488331 180.04045824 32.1707786 171.14887076 36.875 162.25 C42.51417994 151.58383453 48.15785706 140.92018542 53.83111572 130.27209473 C54.51782446 128.9829951 55.20415509 127.69369397 55.89007568 126.4041748 C61.80719467 115.28164933 61.80719467 115.28164933 64.40234375 110.9140625 C66.45810915 107.16442683 67.11201563 104.10893717 66 100 C59.82801245 88.56956819 43.57392911 82.84148929 32 79 C30.66949869 78.65553641 29.33582556 78.32320114 28 78 C27.3181665 77.82774902 26.63633301 77.65549805 25.93383789 77.47802734 C18.44391275 75.77463838 11.09681964 75.61487564 3.4375 75.625 C2.77525421 75.62521149 2.11300842 75.62542297 1.43069458 75.62564087 C-9.22641903 75.65957509 -18.88963493 76.58900583 -29 80 Z " fill="#484849" transform="translate(496,168)"/>
<path d="M0 0 C7.50335966 10.21290621 7.20644108 25.16704278 7.57196045 37.31083679 C7.61262406 38.58272533 7.65328767 39.85461387 7.69518352 41.16504449 C8.09371242 54.55637972 8.15561905 67.94283176 8.16113281 81.33911133 C8.16577913 84.03347919 8.17078798 86.72784442 8.17617798 89.42221069 C8.18953933 96.64294734 8.19574752 103.86367829 8.20018864 111.08442521 C8.20298338 115.61339508 8.20722535 120.14236292 8.21169281 124.67133141 C8.22384512 137.27664078 8.23415948 149.88194858 8.2375679 162.48726368 C8.23789725 163.68797216 8.23789725 163.68797216 8.23823325 164.91293738 C8.23845153 165.71497205 8.23866981 166.51700672 8.2388947 167.34334546 C8.23933812 168.96774789 8.23978468 170.59215031 8.24023438 172.21655273 C8.24056652 173.42511068 8.24056652 173.42511068 8.24090537 174.65808394 C8.24485904 187.73153517 8.26234859 200.80493089 8.2855939 213.87836067 C8.30941188 227.38530504 8.32177409 240.89222159 8.32293582 254.39918727 C8.32384552 261.94935614 8.32941961 269.49945209 8.34775543 277.0496006 C8.36329716 283.47005445 8.36819439 289.8904127 8.36001733 296.31088183 C8.35616293 299.57279242 8.35847884 302.83447494 8.37107468 306.09636879 C8.54196084 353.15432286 -0.67071319 394.48917274 -34 429 C-34.73863281 429.79019531 -35.47726562 430.58039063 -36.23828125 431.39453125 C-62.75566944 459.07538802 -101.84857281 473.22085732 -139.671875 474.125 C-171.571649 474.64111897 -215.60134559 470.3617116 -240 447 C-242.34162718 443.66495522 -243.03320117 441.94623327 -242.890625 437.8828125 C-241.73204582 432.83181381 -239.43869961 429.15859794 -236.6875 424.8125 C-235.59573798 423.04725595 -234.50461134 421.2816188 -233.4140625 419.515625 C-232.85106445 418.61134766 -232.28806641 417.70707031 -231.70800781 416.77539062 C-230.0065211 414.01059632 -228.35169672 411.2230752 -226.7109375 408.421875 C-226.18282471 407.52364014 -225.65471191 406.62540527 -225.1105957 405.69995117 C-224.10190223 403.98146582 -223.0976061 402.26038941 -222.09838867 400.53637695 C-215.83202095 389.95325063 -215.83202095 389.95325063 -209.80859375 387.92578125 C-204.5352059 388.02854471 -200.76483629 389.93492506 -196.0625 392.1875 C-171.10528351 403.53447512 -143.83049468 405.5125303 -117.6875 396.75 C-101.02162829 390.4373312 -101.02162829 390.4373312 -89 378 C-88.39671875 377.71640625 -87.7934375 377.4328125 -87.171875 377.140625 C-75.71894935 371.12577915 -68.89345345 352.81061971 -65.0078125 341.05859375 C-61.53072179 328.01636084 -61.74032526 315.05106307 -61.80810547 301.66479492 C-61.8119097 299.42285809 -61.81471537 297.18091937 -61.81660461 294.9389801 C-61.82202523 290.1324584 -61.8329804 285.32599269 -61.84786606 280.5194912 C-61.8699061 272.90671412 -61.87023867 265.29403097 -61.86599731 257.68122864 C-61.86480414 255.06762601 -61.86363513 252.45402337 -61.8624897 249.84042072 C-61.86190945 248.53211721 -61.8613292 247.2238137 -61.86073136 245.87586462 C-61.85844029 239.12777276 -61.85887449 232.37968354 -61.86132812 225.6315918 C-61.86168643 224.61715243 -61.86168643 224.61715243 -61.86205198 223.58221934 C-61.86665588 212.62655896 -61.89366138 201.67104422 -61.92714594 190.71543928 C-61.96092377 179.42831755 -61.96335128 168.14145216 -61.94040024 156.85428125 C-61.92875037 150.53236769 -61.9316419 144.21121931 -61.96990585 137.88939476 C-62.00580379 131.94063217 -62.00414588 125.99302761 -61.97467613 120.04424095 C-61.97048104 117.87236756 -61.97973829 115.70041585 -62.00410271 113.52867508 C-62.15147583 99.53519009 -60.3358772 89.95228092 -53 78 C-51.76499583 75.73482295 -50.58170203 73.44721739 -49.39453125 71.15625 C-48.20301487 68.93615965 -47.00895796 66.71743112 -45.8125 64.5 C-45.16440286 63.29532696 -44.51645691 62.09057258 -43.86865234 60.88574219 C-42.23145027 57.8424974 -40.59109641 54.80096479 -38.949646 51.76000977 C-38.03019463 50.05596069 -37.11199972 48.35123387 -36.19384766 46.64648438 C-32.48144814 39.75396641 -28.75202719 32.87102794 -25 26 C-24.34644531 24.80068848 -24.34644531 24.80068848 -23.6796875 23.57714844 C-9.30151989 -2.72630755 -9.30151989 -2.72630755 0 0 Z " fill="#D6D6D5" transform="translate(657,286)"/>
<path d="M0 0 C0.33 0 0.66 0 1 0 C0.67 79.2 0.34 158.4 0 240 C-0.33 240 -0.66 240 -1 240 C-2.18074172 235.33811266 -2.14251004 230.83212537 -2.13371277 226.05822754 C-2.13597833 225.15657915 -2.13824388 224.25493075 -2.14057809 223.32595968 C-2.14690935 220.30388198 -2.14608927 217.28184923 -2.14526367 214.25976562 C-2.14825582 212.09295595 -2.15165848 209.92614681 -2.15544128 207.75933838 C-2.16428261 201.87051679 -2.16661953 195.98170974 -2.16725707 190.09288216 C-2.16796782 186.41105625 -2.17010268 182.72923404 -2.17275429 179.04740906 C-2.18201011 166.19436407 -2.18608912 153.34132946 -2.18530273 140.48828125 C-2.18470278 128.52271154 -2.19523792 116.557192 -2.2110464 104.59163141 C-2.22414485 94.30945706 -2.22948562 84.02729743 -2.22884732 73.7451148 C-2.22859289 67.60844682 -2.23141336 61.47181895 -2.24202538 55.3351593 C-2.25174442 49.55676557 -2.25175949 43.77844998 -2.24450874 38.00005341 C-2.24346743 35.88660823 -2.24579868 33.77315809 -2.2518692 31.65972137 C-2.28072476 20.9118583 -2.18169092 10.56977612 0 0 Z " fill="#2A2A2A" transform="translate(404,311)"/>
<path d="M0 0 C0.66 0.33 1.32 0.66 2 1 C2.00331015 1.71854786 2.00662029 2.43709572 2.01003075 3.17741776 C2.09164484 20.75114973 2.1838587 38.32479509 2.28752708 55.8984108 C2.33741329 64.39726252 2.38385649 72.89610574 2.421875 81.39501953 C2.4550638 88.81223554 2.49503781 96.22938048 2.54279006 103.64651752 C2.56779133 107.56513509 2.58964643 111.48370716 2.60334396 115.4023819 C2.66239689 131.68852613 2.86657586 147.82513835 5 164 C4.34 163.67 3.68 163.34 3 163 C0.73966947 155.49440484 -0.20188473 147.61618109 -0.58154297 139.80883789 C-0.62167952 139.00616769 -0.66181606 138.20349749 -0.70316887 137.37650394 C-1.23121868 125.42394505 -1.14588689 113.45593116 -1.1343255 101.49438357 C-1.13175412 97.9920283 -1.13415162 94.48967535 -1.13571167 90.98731995 C-1.13751556 85.13029499 -1.13517004 79.27328278 -1.13037109 73.41625977 C-1.12488845 66.6465932 -1.12672698 59.87695657 -1.1321975 53.10729069 C-1.13672823 47.26573315 -1.13738068 41.42418464 -1.13475883 35.58262593 C-1.13320137 32.10527972 -1.13298864 28.62794764 -1.13629532 25.15060234 C-1.13970832 21.29496961 -1.13498529 17.43937095 -1.12939453 13.58374023 C-1.13141876 12.43323685 -1.13344299 11.28273346 -1.13552856 10.09736633 C-1.13270874 9.05347748 -1.12988892 8.00958862 -1.12698364 6.93406677 C-1.1264181 5.56903597 -1.1264181 5.56903597 -1.12584114 4.17642879 C-1 2 -1 2 0 0 Z " fill="#403F3F" transform="translate(332,471)"/>
<path d="M0 0 C0.33 0 0.66 0 1 0 C0.93019456 0.90011338 0.86038912 1.80022676 0.78846836 2.72761631 C0.10833872 12.07484602 -0.16669389 21.37380158 -0.20532227 30.74780273 C-0.21493359 32.25738778 -0.22494538 33.76697031 -0.23532104 35.27655029 C-0.26202448 39.32303737 -0.2832179 43.3695357 -0.30332303 47.41606021 C-0.3253995 51.6641174 -0.35268078 55.91214131 -0.37937927 60.16017151 C-0.42901665 68.18137023 -0.47406115 76.20258771 -0.51740164 84.22382265 C-0.56702375 93.3654938 -0.62184812 102.50713152 -0.67708123 111.64877021 C-0.79045596 130.43248234 -0.89738945 149.21622613 -1 168 C-1.66 168.33 -2.32 168.66 -3 169 C-3.97299966 152.08221772 -4.16235518 135.19600197 -4.12897491 118.25419617 C-4.12494726 116.0967509 -4.12246364 113.93930824 -4.12030029 111.78186035 C-4.09546888 90.12887228 -3.94618234 68.47732929 -3.6521225 46.82631683 C-3.62526969 44.77064547 -3.60154281 42.71495994 -3.57867432 40.65924072 C-3.13649972 3.13649972 -3.13649972 3.13649972 0 0 Z " fill="#3A3A39" transform="translate(335,301)"/>
<path d="M0 0 C0.33 0 0.66 0 1 0 C0.93148331 0.87294205 0.86296661 1.74588409 0.79237366 2.64527893 C0.0491701 12.79856691 -0.20964177 22.91211719 -0.31640625 33.08984375 C-0.33704281 34.77234834 -0.35804067 36.45484853 -0.37937927 38.13734436 C-0.43390957 42.51175313 -0.48361567 46.88620313 -0.53222656 51.26068115 C-0.58295421 55.74608925 -0.63836939 60.23143936 -0.69335938 64.71679688 C-0.80009302 73.47781519 -0.90171693 82.23888283 -1 91 C-1.99 91 -2.98 91 -4 91 C-3.91505464 81.48014329 -3.81996988 71.96045438 -3.71247292 62.44082546 C-3.6628475 58.01893086 -3.61651906 53.59705634 -3.578125 49.17504883 C-3.54084004 44.89552119 -3.49437302 40.61617699 -3.44193649 36.33680916 C-3.42361899 34.71645437 -3.40843074 33.09606061 -3.39665604 31.47564507 C-3.18401273 3.18401273 -3.18401273 3.18401273 0 0 Z " fill="#313131" transform="translate(335,301)"/>
<path d="M0 0 C9.91191341 1.52136345 19.085704 13.60951096 25 21 C32.3517722 31.07201336 38.91762973 41.00463421 37 54 C35.61563952 58.14827464 33.91897264 62.07295957 32 66 C31.34 66 30.68 66 30 66 C31.33333333 62 32.66666667 58 34 54 C35.37620344 40.44101196 29.49098794 31.03598601 21.3984375 20.703125 C15.61877639 13.66420812 8.92140786 7.61497108 1.58203125 2.2421875 C1.05996094 1.83226562 0.53789063 1.42234375 0 1 C0 0.67 0 0.34 0 0 Z " fill="#3B3A3A" transform="translate(601,205)"/>
<path d="M0 0 C2 2 2 2 2.35351562 5.64428711 C2.22494293 10.34426725 0.61606061 13.65163603 -1.65625 17.69140625 C-2.03680542 18.39917709 -2.41736084 19.10694794 -2.80944824 19.83616638 C-4.02422558 22.08705277 -5.26136234 24.32467203 -6.5 26.5625 C-7.30101725 28.03627445 -8.10050893 29.51087913 -8.8984375 30.98632812 C-10.47497031 33.89659897 -12.05999023 36.80197033 -13.65234375 39.70361328 C-17.15962105 46.10461328 -20.57851628 52.55286284 -24 59 C-24.66 59 -25.32 59 -26 59 C-24.74235955 54.9776171 -23.2617796 51.31246407 -21.3125 47.578125 C-20.51827637 46.05264038 -20.51827637 46.05264038 -19.70800781 44.49633789 C-19.14436523 43.42504639 -18.58072266 42.35375488 -18 41.25 C-17.4234668 40.14197021 -16.84693359 39.03394043 -16.25292969 37.89233398 C-13.57605585 32.77545491 -10.86147238 27.69648416 -7.953125 22.70703125 C-7.49421875 21.91458008 -7.0353125 21.12212891 -6.5625 20.30566406 C-5.71924223 18.86447129 -4.86100444 17.43188296 -3.984375 16.01074219 C-0.92039241 10.77557599 -0.21952708 6.02849202 0 0 Z " fill="#333333" transform="translate(562,266)"/>
<path d="M0 0 C0.33 0.66 0.66 1.32 1 2 C6.94 2 12.88 2 19 2 C19.495 2.99 19.495 2.99 20 4 C7.46 4 -5.08 4 -18 4 C-16 2 -16 2 -12.3046875 1.8046875 C-10.82799892 1.817991 -9.35137642 1.84185165 -7.875 1.875 C-7.12089844 1.88402344 -6.36679687 1.89304688 -5.58984375 1.90234375 C-3.72642746 1.9259313 -1.86317407 1.96180281 0 2 C0 1.34 0 0.68 0 0 Z " fill="#323131" transform="translate(496,168)"/>
<path d="M0 0 C1.2132325 2.87553558 1.01965373 3.94900018 -0.12402344 6.91674805 C-0.69668945 8.02058838 -1.26935547 9.12442871 -1.859375 10.26171875 C-2.16441956 10.8529805 -2.46946411 11.44424225 -2.78375244 12.05342102 C-3.43037141 13.29949978 -4.08300911 14.54247122 -4.74121094 15.7824707 C-5.74781061 17.68336548 -6.73046538 19.59528809 -7.7109375 21.50976562 C-8.34235658 22.71947833 -8.9751241 23.92848836 -9.609375 25.13671875 C-10.18655273 26.23717529 -10.76373047 27.33763184 -11.35839844 28.47143555 C-13 31 -13 31 -16 32 C-14.12856985 27.09088614 -11.74551957 22.5041492 -9.33984375 17.83984375 C-7.95669846 15.17280989 -7.95669846 15.17280989 -7.50390625 12.81640625 C-6.86329125 10.50721266 -5.71227712 9.64429589 -4 8 C-2.80400932 5.96767758 -2.80400932 5.96767758 -1.8125 3.8125 C-1.46832031 3.09707031 -1.12414062 2.38164063 -0.76953125 1.64453125 C-0.51558594 1.10183594 -0.26164062 0.55914063 0 0 Z " fill="#2E2E2E" transform="translate(459,592)"/>
<path d="M0 0 C-0.53367187 0.27674561 -1.06734375 0.55349121 -1.6171875 0.83862305 C-4.07990784 2.11818308 -6.53995279 3.40280868 -9 4.6875 C-9.83917969 5.12255859 -10.67835938 5.55761719 -11.54296875 6.00585938 C-16.3143824 8.50252931 -20.91349842 11.12105781 -25.40625 14.09301758 C-27 15 -27 15 -29 15 C-29 14.34 -29 13.68 -29 13 C-7.61867933 -2.31178448 -7.61867933 -2.31178448 0 0 Z " fill="#363636" transform="translate(431,185)"/>
<path d="M0 0 C0.66 0 1.32 0 2 0 C0.36036204 5.94615694 -2.62375462 11.03522078 -5.625 16.375 C-6.140625 17.30183594 -6.65625 18.22867187 -7.1875 19.18359375 C-8.45382811 21.45829425 -9.72475925 23.73028792 -11 26 C-12.05405966 23.31693904 -12.09937642 22.24879711 -11.01196289 19.52636719 C-10.5039917 18.62563477 -9.99602051 17.72490234 -9.47265625 16.796875 C-8.92802734 15.8171875 -8.38339844 14.8375 -7.82226562 13.828125 C-7.24154297 12.81234375 -6.66082031 11.7965625 -6.0625 10.75 C-5.48564453 9.71875 -4.90878906 8.6875 -4.31445312 7.625 C-2.88709802 5.07699419 -1.44868897 2.53591786 0 0 Z " fill="#333434" transform="translate(514,364)"/>
<path d="M0 0 C0.66 0.33 1.32 0.66 2 1 C2 4 2 4 0.25585938 6.0847168 C-0.54013672 6.86500244 -1.33613281 7.64528809 -2.15625 8.44921875 C-3.01347656 9.29677734 -3.87070312 10.14433594 -4.75390625 11.01757812 C-5.66011719 11.89865234 -6.56632812 12.77972656 -7.5 13.6875 C-8.40621094 14.58017578 -9.31242187 15.47285156 -10.24609375 16.39257812 C-12.49085168 18.60189251 -14.74229998 20.80392533 -17 23 C-17 18.78193333 -15.14807199 17.61332709 -12.3125 14.5625 C-11.44238281 13.61503906 -10.57226562 12.66757813 -9.67578125 11.69140625 C-7 9 -7 9 -4.21484375 6.7890625 C-1.79535567 4.83469646 -1.41326121 3.99614377 -1 1 C-0.67 0.67 -0.34 0.34 0 0 Z " fill="#4E4E50" transform="translate(387,209)"/>
<path d="M0 0 C2.87059128 2.54003834 4.50881883 5.42296208 6.375 8.75 C8.42192253 12.33971977 10.47794909 15.80355519 12.9375 19.125 C15 22 15 22 15 24 C14.34 24 13.68 24 13 24 C11.26204124 21.65688579 9.64788536 19.31827788 8.0625 16.875 C7.61970703 16.20984375 7.17691406 15.5446875 6.72070312 14.859375 C0 4.64310497 0 4.64310497 0 0 Z " fill="#343434" transform="translate(345,658)"/>
<path d="M0 0 C1.39746302 4.19238905 -0.15968125 6.10701803 -2 10 C-3.5568172 13.1136344 -5.33168132 16.10578262 -7.0625 19.125 C-7.62807617 20.11306641 -7.62807617 20.11306641 -8.20507812 21.12109375 C-9.13623555 22.74767254 -10.06805482 24.37387242 -11 26 C-11.66 26 -12.32 26 -13 26 C-11.30898814 21.51399963 -9.21308518 17.27749419 -7.0625 13 C-6.71509766 12.30132812 -6.36769531 11.60265625 -6.00976562 10.8828125 C-4.1443999 7.1591069 -2.20466898 3.53852827 0 0 Z " fill="#333333" transform="translate(546,428)"/>
<path d="M0 0 C9.187326 2.48306108 17.10762205 7.56711391 24 14 C23.01 14.33 22.02 14.66 21 15 C19.125 13.77734375 19.125 13.77734375 17 11.9375 C12.66822235 8.37518285 8.17990619 5.79259133 3.1875 3.26171875 C1 2 1 2 0 0 Z " fill="#2F2E2F" transform="translate(537,249)"/>
<path d="M0 0 C-1.31773204 3.00828582 -2.60401219 4.73996372 -5.1875 6.75 C-8.68716555 9.61402692 -11.53923213 12.79028921 -14.421875 16.265625 C-16 18 -16 18 -19 20 C-17.72593088 16.33468019 -16.33985442 13.96304736 -13.59375 11.23046875 C-12.93246094 10.56982422 -12.27117187 9.90917969 -11.58984375 9.22851562 C-10.90019531 8.55498047 -10.21054687 7.88144531 -9.5 7.1875 C-8.81035156 6.49462891 -8.12070312 5.80175781 -7.41015625 5.08789062 C-2.26712592 0 -2.26712592 0 0 0 Z " fill="#2F2F2F" transform="translate(386,212)"/>
<path d="M0 0 C0.66 0 1.32 0 2 0 C0.4887415 4.67182316 -1.20031856 9.24647655 -3 13.8125 C-3.26039063 14.49248047 -3.52078125 15.17246094 -3.7890625 15.87304688 C-5.76733307 20.88366654 -5.76733307 20.88366654 -8 22 C-7.44687265 17.97007218 -6.8441938 13.97977076 -6 10 C-5.34 10 -4.68 10 -4 10 C-3.71125 9.0925 -3.4225 8.185 -3.125 7.25 C-2.23468224 4.67797092 -1.28505587 2.38653234 0 0 Z " fill="#323333" transform="translate(350,254)"/>
<path d="M0 0 C0.66 0 1.32 0 2 0 C0.51991304 5.00113594 -1.6318336 9.32915597 -4.125 13.875 C-4.49753906 14.56335938 -4.87007813 15.25171875 -5.25390625 15.9609375 C-6.16499526 17.64294798 -7.08190315 19.32180436 -8 21 C-8.33 21 -8.66 21 -9 21 C-9.75634421 15.67407619 -7.11754831 12.08545279 -4.5 7.6875 C-4.07074219 6.94693359 -3.64148438 6.20636719 -3.19921875 5.44335938 C-2.14240987 3.62329964 -1.07247813 1.81087081 0 0 Z " fill="#313132" transform="translate(432,518)"/>
<path d="M0 0 C0.33 0.66 0.66 1.32 1 2 C0.19555664 3.87939453 0.19555664 3.87939453 -1.08984375 6.1328125 C-1.54423828 6.93847656 -1.99863281 7.74414062 -2.46679688 8.57421875 C-2.95212891 9.41597656 -3.43746094 10.25773437 -3.9375 11.125 C-4.41896484 11.97449219 -4.90042969 12.82398438 -5.39648438 13.69921875 C-6.59057183 15.80365011 -7.79196837 17.90355191 -9 20 C-10.18284261 16.498728 -10.02089921 16.04804239 -8.41796875 12.36328125 C-7.68702292 11.00618945 -6.94301708 9.6560676 -6.1875 8.3125 C-5.81818359 7.62349609 -5.44886719 6.93449219 -5.06835938 6.22460938 C-2.28492087 1.14246044 -2.28492087 1.14246044 0 0 Z " fill="#292A2A" transform="translate(535,327)"/>
<path d="M0 0 C0.66 0 1.32 0 2 0 C0.6077541 4.62675657 -1.29520984 8.64686231 -3.625 12.875 C-4.25664062 14.02742188 -4.88828125 15.17984375 -5.5390625 16.3671875 C-6.02117187 17.23601562 -6.50328125 18.10484375 -7 19 C-8 16 -8 16 -7.37915039 14.19067383 C-7.03875732 13.53607178 -6.69836426 12.88146973 -6.34765625 12.20703125 C-5.98349609 11.49482422 -5.61933594 10.78261719 -5.24414062 10.04882812 C-4.85419922 9.31083984 -4.46425781 8.57285156 -4.0625 7.8125 C-3.48338867 6.68811523 -3.48338867 6.68811523 -2.89257812 5.54101562 C-1.93728243 3.68939311 -0.96978423 1.84407548 0 0 Z " fill="#2F2F2F" transform="translate(490,409)"/>
<path d="M0 0 C0.66 0 1.32 0 2 0 C0.6077541 4.62675657 -1.29520984 8.64686231 -3.625 12.875 C-4.25664062 14.02742188 -4.88828125 15.17984375 -5.5390625 16.3671875 C-6.02117187 17.23601562 -6.50328125 18.10484375 -7 19 C-7.76849965 16.74457325 -8.15628879 15.46093824 -7.37915039 13.16894531 C-7.03875732 12.56147461 -6.69836426 11.95400391 -6.34765625 11.328125 C-5.98349609 10.66425781 -5.61933594 10.00039063 -5.24414062 9.31640625 C-4.85419922 8.63449219 -4.46425781 7.95257813 -4.0625 7.25 C-3.48338867 6.20392578 -3.48338867 6.20392578 -2.89257812 5.13671875 C-1.93926363 3.4183988 -0.97104654 1.70836196 0 0 Z " fill="#2D2E2E" transform="translate(472,443)"/>
<path d="M0 0 C-1 3 -1 3 -3.6171875 4.640625 C-5.22980469 5.43726563 -5.22980469 5.43726563 -6.875 6.25 C-8.47988281 7.06210937 -8.47988281 7.06210937 -10.1171875 7.890625 C-13 9 -13 9 -16 8 C-15.36191406 7.66226562 -14.72382813 7.32453125 -14.06640625 6.9765625 C-13.24011719 6.53054688 -12.41382813 6.08453125 -11.5625 5.625 C-10.73878906 5.18414062 -9.91507812 4.74328125 -9.06640625 4.2890625 C-6.86533422 3.16581441 -6.86533422 3.16581441 -6 1 C-3.911361 0.32624548 -2.19636905 0 0 0 Z " fill="#333334" transform="translate(457,250)"/>
<path d="M0 0 C0.71484375 1.578125 0.71484375 1.578125 1 4 C-0.05709499 6.38494456 -1.1317889 8.51234067 -2.4375 10.75 C-2.77587891 11.35199219 -3.11425781 11.95398438 -3.46289062 12.57421875 C-4.29768265 14.05568065 -5.14741494 15.52870608 -6 17 C-6.66 17 -7.32 17 -8 17 C-7.33333333 15 -6.66666667 13 -6 11 C-5.690625 9.948125 -5.38125 8.89625 -5.0625 7.8125 C-4.01797391 5.04757801 -3.1802919 3.895906 -1 2 C-0.67 1.34 -0.34 0.68 0 0 Z " fill="#313031" transform="translate(521,475)"/>
<path d="M0 0 C0.33 0.99 0.66 1.98 1 3 C-0.109375 5.15625 -0.109375 5.15625 -1.75 7.5 C-2.28109375 8.2734375 -2.8121875 9.046875 -3.359375 9.84375 C-4.79968852 11.73673348 -6.26997794 13.37419613 -8 15 C-8.99 14.67 -9.98 14.34 -11 14 C-10.54109375 13.57589844 -10.0821875 13.15179687 -9.609375 12.71484375 C-5.47640381 8.76420952 -2.59838877 5.09284198 0 0 Z " fill="#363636" transform="translate(411,683)"/>
<path d="M0 0 C0.33 0 0.66 0 1 0 C1 4.95 1 9.9 1 15 C0.01 15 -0.98 15 -2 15 C-2.05429959 13.25034642 -2.09292823 11.50020213 -2.125 9.75 C-2.15980469 8.28820312 -2.15980469 8.28820312 -2.1953125 6.796875 C-1.99862781 3.9803502 -1.44568916 2.39050964 0 0 Z " fill="#363636" transform="translate(333,377)"/>
<path d="M0 0 C0.66 0.33 1.32 0.66 2 1 C-2.455 7.93 -2.455 7.93 -7 15 C-8 11 -8 11 -6.6015625 8.45703125 C-5.94929688 7.58433594 -5.29703125 6.71164063 -4.625 5.8125 C-3.97789062 4.93207031 -3.33078125 4.05164063 -2.6640625 3.14453125 C-1 1 -1 1 0 0 Z " fill="#2D2D2E" transform="translate(361,238)"/>
<path d="M0 0 C4.52615993 3.67832017 8.39424999 7.41086363 12 12 C8.20405883 11.43573848 6.41289367 9.81748138 3.75 7.125 C3.04359375 6.42632813 2.3371875 5.72765625 1.609375 5.0078125 C0 3 0 3 0 0 Z " fill="#2C2D2D" transform="translate(361,682)"/>
<path d="M0 0 C0.66 0 1.32 0 2 0 C0.45454854 5.47932789 -2.15543212 10.11429181 -5 15 C-5.68359375 13.359375 -5.68359375 13.359375 -6 11 C-4.78515625 8.203125 -4.78515625 8.203125 -3.0625 5.25 C-2.49660156 4.26515625 -1.93070312 3.2803125 -1.34765625 2.265625 C-0.90292969 1.51796875 -0.45820313 0.7703125 0 0 Z " fill="#303031" transform="translate(499,392)"/>
<path d="M0 0 C0.66 0 1.32 0 2 0 C0.53967505 5.31027254 -1.98320986 9.46330032 -5 14 C-6 11 -6 11 -4.78515625 8.30078125 C-4.21667969 7.31464844 -3.64820313 6.32851563 -3.0625 5.3125 C-2.49660156 4.31863281 -1.93070312 3.32476563 -1.34765625 2.30078125 C-0.90292969 1.54152344 -0.45820313 0.78226563 0 0 Z " fill="#302F30" transform="translate(420,540)"/>
<path d="M0 0 C1.06528748 2.73019786 1.07998186 3.79298812 0.00390625 6.578125 C-0.47175781 7.45984375 -0.94742187 8.3415625 -1.4375 9.25 C-1.91058594 10.14203125 -2.38367188 11.0340625 -2.87109375 11.953125 C-3.24363281 12.62859375 -3.61617188 13.3040625 -4 14 C-4.99 14 -5.98 14 -7 14 C-7 11 -7 11 -5.63671875 9.57421875 C-4.82654297 8.79498047 -4.82654297 8.79498047 -4 8 C-2.80400932 5.96767758 -2.80400932 5.96767758 -1.8125 3.8125 C-1.46832031 3.09707031 -1.12414062 2.38164063 -0.76953125 1.64453125 C-0.51558594 1.10183594 -0.26164062 0.55914063 0 0 Z " fill="#3D3D3D" transform="translate(459,592)"/>
<path d="M0 0 C1.32 0.33 2.64 0.66 4 1 C0.7 3.64 -2.6 6.28 -6 9 C-6.66 8.67 -7.32 8.34 -8 8 C-6.33333333 6.33333333 -4.66666667 4.66666667 -3 3 C-2.484375 2.38125 -1.96875 1.7625 -1.4375 1.125 C-0.963125 0.75375 -0.48875 0.3825 0 0 Z " fill="#333333" transform="translate(396,202)"/>
<path d="M0 0 C0.99 0 1.98 0 3 0 C5.078125 2.08203125 5.078125 2.08203125 7.25 4.8125 C8.34054687 6.15248047 8.34054687 6.15248047 9.453125 7.51953125 C9.96359375 8.33808594 10.4740625 9.15664062 11 10 C10.67 10.99 10.34 11.98 10 13 C8.70681744 11.3970551 7.41550844 9.79259858 6.125 8.1875 C5.40570312 7.29417969 4.68640625 6.40085938 3.9453125 5.48046875 C2 3 2 3 0 0 Z " fill="#2D2D2D" transform="translate(617,219)"/>
<path d="M0 0 C0.66 0 1.32 0 2 0 C0.58707905 4.8274799 -1.42974154 8.7162359 -4 13 C-5.0169313 10.34501768 -5.13022151 9.30844625 -4.00390625 6.640625 C-3.52824219 5.85171875 -3.05257813 5.0628125 -2.5625 4.25 C-2.08941406 3.45078125 -1.61632812 2.6515625 -1.12890625 1.828125 C-0.75636719 1.22484375 -0.38382812 0.6215625 0 0 Z " fill="#2F2F30" transform="translate(461,464)"/>
<path d="M0 0 C0.66 0 1.32 0 2 0 C0.58707905 4.8274799 -1.42974154 8.7162359 -4 13 C-5.0169313 10.34501768 -5.13022151 9.30844625 -4.00390625 6.640625 C-3.52824219 5.85171875 -3.05257812 5.0628125 -2.5625 4.25 C-2.08941406 3.45078125 -1.61632812 2.6515625 -1.12890625 1.828125 C-0.75636719 1.22484375 -0.38382813 0.6215625 0 0 Z " fill="#2E2E2F" transform="translate(522,349)"/>
<path d="M0 0 C0.96070434 2.88211302 1.10581883 4.69850044 1.0625 7.6875 C1.05347656 8.49574219 1.04445313 9.30398438 1.03515625 10.13671875 C1.02355469 10.75160156 1.01195312 11.36648438 1 12 C0.34 11.67 -0.32 11.34 -1 11 C-2.36817102 4.95724466 -2.36817102 4.95724466 -1.0625 1.5625 C-0.711875 1.046875 -0.36125 0.53125 0 0 Z " fill="#D0CECC" transform="translate(416,719)"/>
<path d="M0 0 C0.68359375 1.703125 0.68359375 1.703125 1 4 C-0.21484375 6.359375 -0.21484375 6.359375 -1.9375 8.75 C-2.50339844 9.54921875 -3.06929687 10.3484375 -3.65234375 11.171875 C-4.09707031 11.77515625 -4.54179688 12.3784375 -5 13 C-5.33 12.34 -5.66 11.68 -6 11 C-4.78515625 8.3984375 -4.78515625 8.3984375 -3.0625 5.375 C-2.21365234 3.87066406 -2.21365234 3.87066406 -1.34765625 2.3359375 C-0.90292969 1.56507813 -0.45820312 0.79421875 0 0 Z " fill="#2B2B2C" transform="translate(556,409)"/>
<path d="M0 0 C1 3 1 3 0.328125 5.0078125 C-0.02765625 5.70648438 -0.3834375 6.40515625 -0.75 7.125 C-1.26820313 8.18074219 -1.26820313 8.18074219 -1.796875 9.2578125 C-3 11 -3 11 -6 12 C-4.43358249 7.69235185 -2.31663844 3.93828536 0 0 Z " fill="#353535" transform="translate(567,389)"/>
<path d="M0 0 C4.5076467 0.53031138 7.41954788 2.25221116 11 5 C11 5.66 11 6.32 11 7 C6.89188572 5.55007731 3.53144334 3.54592427 0 1 C0 0.67 0 0.34 0 0 Z " fill="#323232" transform="translate(589,197)"/>
<path d="M0 0 C4.71403788 0.47939368 8.66579301 0.96834048 13 3 C13 3.66 13 4.32 13 5 C8.49933525 3.93204565 4.2505466 2.85961414 0 1 C0 0.67 0 0.34 0 0 Z " fill="#353535" transform="translate(551,179)"/>
<path d="M0 0 C0.75 1.5625 0.75 1.5625 1 4 C-0.13084437 6.50286409 -1.52139516 8.67007722 -3 11 C-3.66 11 -4.32 11 -5 11 C-3.77472971 6.94718288 -2.30119506 3.55639236 0 0 Z " fill="#323232" transform="translate(482,549)"/>
<path d="M0 0 C0.66 0 1.32 0 2 0 C0.77472971 4.05281712 -0.69880494 7.44360764 -3 11 C-3.75 9.4375 -3.75 9.4375 -4 7 C-2.86915563 4.49713591 -1.47860484 2.32992278 0 0 Z " fill="#303031" transform="translate(479,430)"/>
<path d="M0 0 C0.66 0.33 1.32 0.66 2 1 C1.75 2.875 1.75 2.875 1 5 C-1.0625 6.25 -1.0625 6.25 -3 7 C-3 3.48283697 -2.17554415 2.62878252 0 0 Z " fill="#CDCCCA" transform="translate(648,286)"/>
<path d="M0 0 C1 3 1 3 0.07421875 5.04296875 C-0.61220703 6.10451172 -0.61220703 6.10451172 -1.3125 7.1875 C-1.76238281 7.90292969 -2.21226562 8.61835938 -2.67578125 9.35546875 C-3.11277344 9.89816406 -3.54976563 10.44085938 -4 11 C-4.66 11 -5.32 11 -6 11 C-4.54955729 6.89041233 -2.48889248 3.56741255 0 0 Z " fill="#2C2C2C" transform="translate(418,280)"/>
<path d="M0 0 C0.75 1.5625 0.75 1.5625 1 4 C-0.13084437 6.50286409 -1.52139516 8.67007722 -3 11 C-3.66 11 -4.32 11 -5 11 C-3.77472971 6.94718288 -2.30119506 3.55639236 0 0 Z " fill="#323131" transform="translate(603,321)"/>
<path d="M0 0 C1.60031344 3.20062687 0.03173691 5.72271806 -1 9 C-1.66 9 -2.32 9 -3 9 C-3 9.66 -3 10.32 -3 11 C-3.66 11 -4.32 11 -5 11 C-3.77472971 6.94718288 -2.30119506 3.55639236 0 0 Z " fill="#CBC9C7" transform="translate(643,293)"/>
<path d="M0 0 C-3.06246747 1.78409802 -5.22079273 2.22880021 -8.75 2.125 C-9.54921875 2.10695312 -10.3484375 2.08890625 -11.171875 2.0703125 C-11.77515625 2.04710937 -12.3784375 2.02390625 -13 2 C-8.18647258 -0.45179671 -5.36875709 -1.34218927 0 0 Z " fill="#2F2F30" transform="translate(488,243)"/>
<path d="M0 0 C3.73487777 0.4979837 5.81237635 0.87491756 9 3 C8.67 4.32 8.34 5.64 8 7 C8 6.34 8 5.68 8 5 C7.4225 4.71125 6.845 4.4225 6.25 4.125 C4.16666667 3.08333333 2.08333333 2.04166667 0 1 C0 0.67 0 0.34 0 0 Z " fill="#373738" transform="translate(579,191)"/>
<path d="M0 0 C-3.42346555 3.14958831 -6.44262737 3.56179109 -11 4 C-11 3.34 -11 2.68 -11 2 C-7.17679443 0.57741188 -4.08718695 -0.24042276 0 0 Z " fill="#323232" transform="translate(451,177)"/>
<path d="M0 0 C3.94120709 0.56302958 6.7508723 1.6791945 10 4 C10 4.66 10 5.32 10 6 C5.56909529 4.79157144 3.01887244 3.48331435 0 0 Z " fill="#3E3E3E" transform="translate(371,694)"/>
<path d="M0 0 C1 2 1 2 0.546875 3.91015625 C0.28390625 4.62042969 0.0209375 5.33070313 -0.25 6.0625 C-0.62898437 7.13177734 -0.62898437 7.13177734 -1.015625 8.22265625 C-2 10 -2 10 -5 11 C-3.77472971 6.94718288 -2.30119506 3.55639236 0 0 Z " fill="#C7C5C3" transform="translate(621,333)"/>
<path d="M0 0 C0 0.66 0 1.32 0 2 C-1.75 3.5078125 -1.75 3.5078125 -4 5.125 C-4.7425 5.66382813 -5.485 6.20265625 -6.25 6.7578125 C-6.8275 7.16773438 -7.405 7.57765625 -8 8 C-8.66 7.67 -9.32 7.34 -10 7 C-8.71372289 5.82739389 -7.42080217 4.6620717 -6.125 3.5 C-5.04605469 2.52546875 -5.04605469 2.52546875 -3.9453125 1.53125 C-2 0 -2 0 0 0 Z " fill="#282929" transform="translate(440,260)"/>
<path d="M0 0 C4.21912747 0.4794463 6.79663178 1.16625119 10 4 C7 5 7 5 5.17578125 4.22265625 C3.45052083 3.1484375 1.72526042 2.07421875 0 1 C0 0.67 0 0.34 0 0 Z " fill="#353535" transform="translate(565,184)"/>
<path d="M0 0 C0.66 0 1.32 0 2 0 C0.90931332 3.77545388 0.0916909 6.47043472 -3 9 C-3.33 8.34 -3.66 7.68 -4 7 C-3.22265625 5.2734375 -3.22265625 5.2734375 -2.0625 3.375 C-1.381875 2.26125 -0.70125 1.1475 0 0 Z " fill="#3A3939" transform="translate(447,615)"/>
<path d="M0 0 C0.75 1.5625 0.75 1.5625 1 4 C-0.13084437 6.50286409 -1.52139516 8.67007722 -3 11 C-3.66 11 -4.32 11 -5 11 C-3.55049545 7.2089881 -1.84827434 3.6125362 0 0 Z " fill="#2B2B2B" transform="translate(538,443)"/>
<path d="M0 0 C0.33 0.66 0.66 1.32 1 2 C0.22265625 3.7265625 0.22265625 3.7265625 -0.9375 5.625 C-1.618125 6.73875 -2.29875 7.8525 -3 9 C-3.66 9 -4.32 9 -5 9 C-3.90931332 5.22454612 -3.0916909 2.52956528 0 0 Z " fill="#353435" transform="translate(535,327)"/>
<path d="M0 0 C0.66 0 1.32 0 2 0 C0.90931332 3.77545388 0.0916909 6.47043472 -3 9 C-2.44271087 5.65626525 -1.64826111 2.96687001 0 0 Z " fill="#2D2C2D" transform="translate(438,507)"/>
<path d="M0 0 C0.8125 1.6875 0.8125 1.6875 1 4 C-1.4375 6.75 -1.4375 6.75 -4 9 C-2.94124926 5.59687262 -1.99097846 2.98646769 0 0 Z " fill="#303030" transform="translate(580,364)"/>
<path d="M0 0 C4.24822374 0.47202486 6.19989709 2.96655518 9 6 C4.75177626 5.52797514 2.80010291 3.03344482 0 0 Z " fill="#353536" transform="translate(552,258)"/>
<path d="M0 0 C0.99 0.66 1.98 1.32 3 2 C2.67 2.99 2.34 3.98 2 5 C1.34 5 0.68 5 0 5 C-1.62514468 6.45833358 -1.62514468 6.45833358 -3 8 C-1.125 2.25 -1.125 2.25 0 0 Z " fill="#525253" transform="translate(430,644)"/>
<path d="M0 0 C0.66 0 1.32 0 2 0 C0.73058503 3.91402949 -0.51167694 5.79072873 -4 8 C-3.40312566 4.65750371 -2.26396123 2.53563658 0 0 Z " fill="#2C2D2D" transform="translate(424,272)"/>
<path d="M0 0 C1.98 0 3.96 0 6 0 C6 0.33 6 0.66 6 1 C4.02 1 2.04 1 0 1 C0 0.67 0 0.34 0 0 Z " fill="#5F5E5D" transform="translate(509,168)"/>
<path d="M0 0 C0 3 0 3 0 3 Z " fill="#706E6D" transform="translate(348,669)"/>
<path d="M0 0 C1 4 1 4 1 4 Z " fill="#D0CECA" transform="translate(594,403)"/>
<path d="M0 0 C3 1 3 1 3 1 Z " fill="#898683" transform="translate(378,701)"/>
<path d="" fill="#73706D" transform="translate(0,0)"/>
<path d="" fill="#666462" transform="translate(0,0)"/>
<path d="M0 0 C0.99 0.495 0.99 0.495 2 1 C1.01 1.495 1.01 1.495 0 2 C0 1.34 0 0.68 0 0 Z " fill="#636163" transform="translate(410,552)"/>
<path d="" fill="#D7D4D2" transform="translate(0,0)"/>
<path d="" fill="#CFCCC8" transform="translate(0,0)"/>
<path d="M0 0 C0.99 0.495 0.99 0.495 2 1 C1.01 1.495 1.01 1.495 0 2 C0 1.34 0 0.68 0 0 Z " fill="#676566" transform="translate(501,384)"/>
<path d="M0 0 C2 1 2 1 2 1 Z " fill="#D6D5D3" transform="translate(475,758)"/>
<path d="" fill="#CAC8C5" transform="translate(0,0)"/>
<path d="" fill="#6C6B6B" transform="translate(0,0)"/>
<path d="" fill="#716E6D" transform="translate(0,0)"/>
<path d="" fill="#696865" transform="translate(0,0)"/>
<path d="" fill="#61615E" transform="translate(0,0)"/>
<path d="" fill="#656565" transform="translate(0,0)"/>
<path d="" fill="#666666" transform="translate(0,0)"/>
<path d="" fill="#D5D3D0" transform="translate(0,0)"/>
<path d="" fill="#696766" transform="translate(0,0)"/>
<path d="M0 0 C2 1 2 1 2 1 Z " fill="#686666" transform="translate(496,392)"/>
<path d="" fill="#696867" transform="translate(0,0)"/>
<path d="" fill="#95908E" transform="translate(0,0)"/>
<path d="" fill="#646361" transform="translate(0,0)"/>
<path d="" fill="#625F5F" transform="translate(0,0)"/>
<path d="M0 0 C2 1 2 1 2 1 Z " fill="#656362" transform="translate(429,271)"/>
<path d="M0 0 C2 1 2 1 2 1 Z " fill="#61605F" transform="translate(345,258)"/>
<path d="M0 0 C2 1 2 1 2 1 Z " fill="#606160" transform="translate(543,255)"/>
<path d="M0 0 C2 1 2 1 2 1 Z " fill="#636161" transform="translate(481,246)"/>
<path d="M0 0 C2 1 2 1 2 1 Z " fill="#656161" transform="translate(490,245)"/>
<path d="M0 0 C2 1 2 1 2 1 Z " fill="#626061" transform="translate(408,192)"/>
<path d="M0 0 C2 1 2 1 2 1 Z " fill="#616060" transform="translate(474,169)"/>
<path d="M0 0 C2 1 2 1 2 1 Z " fill="#5E5E5E" transform="translate(499,168)"/>
<path d="M0 0 C2 1 2 1 2 1 Z " fill="#615F5E" transform="translate(489,168)"/>
<path d="" fill="#53514C" transform="translate(0,0)"/>
<path d="" fill="#D8D7D4" transform="translate(0,0)"/>
<path d="" fill="#D5D5D4" transform="translate(0,0)"/>
<path d="" fill="#D7D5D1" transform="translate(0,0)"/>
<path d="" fill="#D7D6D3" transform="translate(0,0)"/>
<path d="" fill="#D7D4D1" transform="translate(0,0)"/>
<path d="" fill="#D4D1D1" transform="translate(0,0)"/>
<path d="" fill="#D5D4CF" transform="translate(0,0)"/>
<path d="" fill="#D0CDCB" transform="translate(0,0)"/>
<path d="" fill="#D0CFCC" transform="translate(0,0)"/>
<path d="" fill="#CDCAC8" transform="translate(0,0)"/>
<path d="" fill="#888483" transform="translate(0,0)"/>
<path d="" fill="#888682" transform="translate(0,0)"/>
<path d="" fill="#999792" transform="translate(0,0)"/>
<path d="" fill="#807D7B" transform="translate(0,0)"/>
<path d="" fill="#7F7B78" transform="translate(0,0)"/>
<path d="" fill="#7E7C79" transform="translate(0,0)"/>
<path d="" fill="#DCD9D6" transform="translate(0,0)"/>
<path d="" fill="#D9D9D8" transform="translate(0,0)"/>
<path d="" fill="#726E6C" transform="translate(0,0)"/>
<path d="" fill="#716F6E" transform="translate(0,0)"/>
<path d="" fill="#706B6C" transform="translate(0,0)"/>
<path d="" fill="#6F6D6C" transform="translate(0,0)"/>
<path d="" fill="#6C6D69" transform="translate(0,0)"/>
<path d="" fill="#6E6D6C" transform="translate(0,0)"/>
<path d="" fill="#94928F" transform="translate(0,0)"/>
<path d="" fill="#6C6868" transform="translate(0,0)"/>
<path d="" fill="#6D6B69" transform="translate(0,0)"/>
<path d="" fill="#686766" transform="translate(0,0)"/>
<path d="" fill="#8A8582" transform="translate(0,0)"/>
<path d="" fill="#666664" transform="translate(0,0)"/>
<path d="" fill="#868482" transform="translate(0,0)"/>
<path d="" fill="#666564" transform="translate(0,0)"/>
<path d="" fill="#676663" transform="translate(0,0)"/>
<path d="" fill="#656464" transform="translate(0,0)"/>
<path d="" fill="#827F7E" transform="translate(0,0)"/>
<path d="" fill="#7E7B79" transform="translate(0,0)"/>
<path d="" fill="#7B7876" transform="translate(0,0)"/>
<path d="" fill="#D8D4D2" transform="translate(0,0)"/>
<path d="" fill="#DCD9D5" transform="translate(0,0)"/>
<path d="" fill="#DCD9D7" transform="translate(0,0)"/>
<path d="" fill="#D6D4D3" transform="translate(0,0)"/>
<path d="" fill="#817C7B" transform="translate(0,0)"/>
<path d="" fill="#DCDAD7" transform="translate(0,0)"/>
<path d="" fill="#656465" transform="translate(0,0)"/>
<path d="" fill="#DBD8D7" transform="translate(0,0)"/>
<path d="" fill="#DCDBD7" transform="translate(0,0)"/>
<path d="" fill="#666464" transform="translate(0,0)"/>
<path d="" fill="#D9D8D4" transform="translate(0,0)"/>
<path d="" fill="#646363" transform="translate(0,0)"/>
<path d="" fill="#656465" transform="translate(0,0)"/>
<path d="" fill="#7F7D7A" transform="translate(0,0)"/>
<path d="" fill="#D9D6D4" transform="translate(0,0)"/>
<path d="" fill="#7E7B7A" transform="translate(0,0)"/>
<path d="" fill="#676565" transform="translate(0,0)"/>
<path d="" fill="#696466" transform="translate(0,0)"/>
<path d="" fill="#878583" transform="translate(0,0)"/>
<path d="" fill="#81817E" transform="translate(0,0)"/>
<path d="" fill="#83807C" transform="translate(0,0)"/>
<path d="" fill="#7F7D79" transform="translate(0,0)"/>
<path d="" fill="#7F7B7B" transform="translate(0,0)"/>
<path d="" fill="#D6D3D1" transform="translate(0,0)"/>
<path d="" fill="#676666" transform="translate(0,0)"/>
<path d="" fill="#D9D7D3" transform="translate(0,0)"/>
<path d="" fill="#6D6C6B" transform="translate(0,0)"/>
<path d="" fill="#83807E" transform="translate(0,0)"/>
<path d="" fill="#D5D4D1" transform="translate(0,0)"/>
<path d="" fill="#686865" transform="translate(0,0)"/>
<path d="" fill="#D7D3D1" transform="translate(0,0)"/>
<path d="" fill="#686665" transform="translate(0,0)"/>
<path d="" fill="#898582" transform="translate(0,0)"/>
<path d="" fill="#D6D2D0" transform="translate(0,0)"/>
<path d="" fill="#868484" transform="translate(0,0)"/>
<path d="" fill="#676767" transform="translate(0,0)"/>
<path d="" fill="#686667" transform="translate(0,0)"/>
<path d="" fill="#666566" transform="translate(0,0)"/>
<path d="" fill="#D5D3CF" transform="translate(0,0)"/>
<path d="" fill="#D5D3CE" transform="translate(0,0)"/>
<path d="" fill="#8A8884" transform="translate(0,0)"/>
<path d="" fill="#696665" transform="translate(0,0)"/>
<path d="" fill="#D5D1CE" transform="translate(0,0)"/>
<path d="" fill="#878481" transform="translate(0,0)"/>
<path d="" fill="#D3D1CD" transform="translate(0,0)"/>
<path d="" fill="#D2CFCA" transform="translate(0,0)"/>
<path d="" fill="#6A6966" transform="translate(0,0)"/>
<path d="" fill="#6D6867" transform="translate(0,0)"/>
<path d="" fill="#CECBC7" transform="translate(0,0)"/>
<path d="" fill="#928C8E" transform="translate(0,0)"/>
<path d="" fill="#6A6969" transform="translate(0,0)"/>
<path d="" fill="#95918F" transform="translate(0,0)"/>
<path d="" fill="#9C9997" transform="translate(0,0)"/>
<path d="" fill="#999693" transform="translate(0,0)"/>
<path d="" fill="#676565" transform="translate(0,0)"/>
<path d="" fill="#696865" transform="translate(0,0)"/>
<path d="" fill="#686664" transform="translate(0,0)"/>
<path d="" fill="#95908E" transform="translate(0,0)"/>
<path d="" fill="#686766" transform="translate(0,0)"/>
<path d="" fill="#666564" transform="translate(0,0)"/>
<path d="" fill="#CBC3C3" transform="translate(0,0)"/>
<path d="" fill="#94908D" transform="translate(0,0)"/>
<path d="" fill="#C8C4C1" transform="translate(0,0)"/>
<path d="" fill="#918D88" transform="translate(0,0)"/>
<path d="" fill="#686868" transform="translate(0,0)"/>
<path d="" fill="#878384" transform="translate(0,0)"/>
<path d="" fill="#C3C1BD" transform="translate(0,0)"/>
<path d="" fill="#656261" transform="translate(0,0)"/>
<path d="" fill="#92918D" transform="translate(0,0)"/>
<path d="" fill="#61605F" transform="translate(0,0)"/>
<path d="" fill="#615F5F" transform="translate(0,0)"/>
<path d="" fill="#C2C0BB" transform="translate(0,0)"/>
<path d="" fill="#C1BEBB" transform="translate(0,0)"/>
<path d="" fill="#676462" transform="translate(0,0)"/>
<path d="" fill="#646461" transform="translate(0,0)"/>
<path d="" fill="#646162" transform="translate(0,0)"/>
<path d="" fill="#646263" transform="translate(0,0)"/>
<path d="" fill="#666364" transform="translate(0,0)"/>
<path d="" fill="#666565" transform="translate(0,0)"/>
<path d="" fill="#626160" transform="translate(0,0)"/>
<path d="" fill="#616060" transform="translate(0,0)"/>
<path d="" fill="#676363" transform="translate(0,0)"/>
<path d="" fill="#5F5C5C" transform="translate(0,0)"/>
<path d="" fill="#605E5C" transform="translate(0,0)"/>
<path d="" fill="#626261" transform="translate(0,0)"/>
<path d="" fill="#636162" transform="translate(0,0)"/>
<path d="" fill="#656463" transform="translate(0,0)"/>
<path d="" fill="#666567" transform="translate(0,0)"/>
<path d="" fill="#646263" transform="translate(0,0)"/>
<path d="" fill="#626060" transform="translate(0,0)"/>
<path d="" fill="#666362" transform="translate(0,0)"/>
<path d="" fill="#646263" transform="translate(0,0)"/>
<path d="" fill="#636262" transform="translate(0,0)"/>
<path d="" fill="#616060" transform="translate(0,0)"/>
<path d="" fill="#616060" transform="translate(0,0)"/>
<path d="" fill="#646260" transform="translate(0,0)"/>
<path d="" fill="#666664" transform="translate(0,0)"/>
<path d="" fill="#62615F" transform="translate(0,0)"/>
<path d="" fill="#60605C" transform="translate(0,0)"/>
<path d="" fill="#5F5D5E" transform="translate(0,0)"/>
<path d="" fill="#5F5F5E" transform="translate(0,0)"/>
<path d="" fill="#605F5F" transform="translate(0,0)"/>
<path d="" fill="#5D5C5E" transform="translate(0,0)"/>
<path d="" fill="#63645F" transform="translate(0,0)"/>
<path d="" fill="#626060" transform="translate(0,0)"/>
<path d="" fill="#64615E" transform="translate(0,0)"/>
<path d="" fill="#615E5C" transform="translate(0,0)"/>
<path d="" fill="#61605F" transform="translate(0,0)"/>
<path d="" fill="#61615E" transform="translate(0,0)"/>
<path d="" fill="#636262" transform="translate(0,0)"/>
<path d="" fill="#5F5E5C" transform="translate(0,0)"/>
<path d="" fill="#5E5D5C" transform="translate(0,0)"/>
<path d="" fill="#5E5D5C" transform="translate(0,0)"/>
<path d="" fill="#646262" transform="translate(0,0)"/>
</svg>
